<svg width="344" height="92" viewBox="0 0 344 92" fill="none" xmlns="http://www.w3.org/2000/svg">
<g clip-path="url(#clip0_216_863)">
<path d="M12.2848 8.54368C13.0072 3.63621 17.2179 0 22.1782 0H332.42C338.523 0 343.202 5.41874 342.314 11.4563L331.715 83.4563C330.993 88.3638 326.782 92 321.822 92H11.5798C5.47715 92 0.797643 86.5813 1.68638 80.5437L12.2848 8.54368Z" fill="#B5FF00"/>
<path d="M97.4025 35.2V55H92.2425V41.32L88.8825 42.43L87.6525 37.87L95.7525 35.2H97.4025ZM100.704 56.74H113.904V60.76H100.704V56.74ZM127.614 55L124.134 49.45L120.684 55H114.864L121.314 44.95L115.224 35.2H121.044L124.134 40.48L127.224 35.2H133.044L127.044 44.95L133.434 55H127.614ZM148.105 44.38C149.145 44.8 149.955 45.41 150.535 46.21C151.115 47.01 151.405 47.98 151.405 49.12C151.405 50.26 151.115 51.28 150.535 52.18C149.955 53.06 149.155 53.75 148.135 54.25C147.115 54.75 145.975 55 144.715 55H135.475V35.2H142.615C143.875 35.2 145.015 35.45 146.035 35.95C147.055 36.43 147.855 37.12 148.435 38.02C149.015 38.9 149.305 39.91 149.305 41.05C149.305 42.37 148.905 43.48 148.105 44.38ZM140.425 39.55V43.03H142.285C142.905 43.03 143.385 42.87 143.725 42.55C144.085 42.23 144.265 41.81 144.265 41.29C144.265 40.77 144.085 40.35 143.725 40.03C143.385 39.71 142.905 39.55 142.285 39.55H140.425ZM144.385 50.65C145.005 50.65 145.485 50.51 145.825 50.23C146.185 49.93 146.365 49.49 146.365 48.91C146.365 48.33 146.185 47.9 145.825 47.62C145.485 47.32 145.005 47.17 144.385 47.17H140.425V50.65H144.385ZM154.196 35.2H167.936V39.85H159.356V42.58H165.476V46.9H159.356V50.35H168.296V55H154.196V35.2ZM175.77 39.85H169.83V35.2H186.87V39.85H180.93V55H175.77V39.85ZM203.607 50.68V55L188.457 55.03V53.98L195.567 46.21C196.407 45.29 197.007 44.49 197.367 43.81C197.747 43.13 197.937 42.47 197.937 41.83C197.937 41.13 197.747 40.58 197.367 40.18C196.987 39.78 196.487 39.58 195.867 39.58C195.267 39.58 194.777 39.79 194.397 40.21C194.017 40.61 193.827 41.19 193.827 41.95C193.827 42.33 193.867 42.77 193.947 43.27H188.757C188.617 42.71 188.547 42.15 188.547 41.59C188.547 40.45 188.847 39.36 189.447 38.32C190.067 37.28 190.937 36.44 192.057 35.8C193.197 35.16 194.497 34.84 195.957 34.84C197.317 34.84 198.547 35.12 199.647 35.68C200.767 36.24 201.637 37.02 202.257 38.02C202.897 39 203.217 40.11 203.217 41.35C203.217 42.71 202.847 43.99 202.107 45.19C201.387 46.37 200.317 47.71 198.897 49.21L197.487 50.68H203.607ZM214.846 55.36C213.066 55.36 211.556 54.91 210.316 54.01C209.096 53.09 208.176 51.84 207.556 50.26C206.936 48.68 206.626 46.91 206.626 44.95C206.626 42.99 206.926 41.25 207.526 39.73C208.146 38.21 209.076 37.02 210.316 36.16C211.556 35.28 213.066 34.84 214.846 34.84C216.626 34.84 218.136 35.28 219.376 36.16C220.616 37.02 221.536 38.21 222.136 39.73C222.756 41.25 223.066 42.99 223.066 44.95C223.066 46.91 222.756 48.68 222.136 50.26C221.516 51.84 220.586 53.09 219.346 54.01C218.126 54.91 216.626 55.36 214.846 55.36ZM217.786 44.98C217.786 43.12 217.546 41.76 217.066 40.9C216.586 40.02 215.846 39.58 214.846 39.58C213.846 39.58 213.106 40.02 212.626 40.9C212.146 41.76 211.906 43.12 211.906 44.98C211.906 48.74 212.886 50.62 214.846 50.62C216.806 50.62 217.786 48.74 217.786 44.98ZM241.019 50.68V55L225.869 55.03V53.98L232.979 46.21C233.819 45.29 234.419 44.49 234.779 43.81C235.159 43.13 235.349 42.47 235.349 41.83C235.349 41.13 235.159 40.58 234.779 40.18C234.399 39.78 233.899 39.58 233.279 39.58C232.679 39.58 232.189 39.79 231.809 40.21C231.429 40.61 231.239 41.19 231.239 41.95C231.239 42.33 231.279 42.77 231.359 43.27H226.169C226.029 42.71 225.959 42.15 225.959 41.59C225.959 40.45 226.259 39.36 226.859 38.32C227.479 37.28 228.349 36.44 229.469 35.8C230.609 35.16 231.909 34.84 233.369 34.84C234.729 34.84 235.959 35.12 237.059 35.68C238.179 36.24 239.049 37.02 239.669 38.02C240.309 39 240.629 40.11 240.629 41.35C240.629 42.71 240.259 43.99 239.519 45.19C238.799 46.37 237.729 47.71 236.309 49.21L234.899 50.68H241.019ZM251.808 41.95C252.908 41.95 253.968 42.21 254.988 42.73C256.008 43.23 256.838 43.97 257.478 44.95C258.118 45.91 258.438 47.04 258.438 48.34C258.438 49.68 258.088 50.89 257.388 51.97C256.708 53.03 255.758 53.86 254.538 54.46C253.338 55.06 251.998 55.36 250.518 55.36C248.758 55.36 247.208 54.94 245.868 54.1C244.528 53.24 243.518 52.08 242.838 50.62L246.408 48.1C246.988 48.98 247.578 49.62 248.178 50.02C248.778 50.42 249.488 50.62 250.308 50.62C251.148 50.62 251.828 50.43 252.348 50.05C252.888 49.65 253.158 49.1 253.158 48.4C253.158 47.7 252.878 47.19 252.318 46.87C251.758 46.55 250.898 46.39 249.738 46.39H245.028V35.2H257.298V39.85H249.918V42.16C250.658 42.02 251.288 41.95 251.808 41.95Z" fill="#002F5E"/>
</g>
<defs>
<clipPath id="clip0_216_863">
<rect width="344" height="92" fill="white"/>
</clipPath>
</defs>
</svg>
