<svg width="292" height="93" viewBox="0 0 292 93" fill="none" xmlns="http://www.w3.org/2000/svg">
<path fill-rule="evenodd" clip-rule="evenodd" d="M271.487 92.1374H10.4451C4.09792 92.1374 -0.780752 86.5201 0.103866 80.2349L10.1708 8.98327C10.9006 3.83037 15.306 0 20.512 0H281.554C287.901 0 292.784 5.61734 291.895 11.9026L281.824 83.1541C281.094 88.307 276.689 92.133 271.483 92.133L271.487 92.1374Z" fill="white"/>
<path d="M167.867 35.1325C170.11 26.0917 164.63 18.6167 151.175 18.6167L122.04 18.6565L111.128 62.8343L117.462 73.7063H138.197C151.789 73.7063 162.299 67.368 165.019 56.359C166.377 50.7195 164.807 46.7608 161.255 44.7882V44.651C164.811 42.4085 166.921 38.9408 167.876 35.1369L167.867 35.1325ZM150.02 56.0007C149.476 58.314 147.915 60.6715 141.457 60.6715H128.223L130.532 51.1928H143.695C150.153 51.1928 150.626 53.6211 150.016 56.0007H150.02ZM152.74 35.4289C152.263 37.1981 150.905 39.3477 145.332 39.3477H133.46L135.433 31.6471H147.304C152.944 31.6471 153.218 33.4562 152.74 35.4289Z" fill="#007ACC"/>
<path d="M186.219 52.3782H212.744L215.774 39.3477H189.412L191.451 31.6471H217.565L220.595 18.6167H177.744L164.147 73.7019H212.678L215.871 60.6715H184.246L186.219 52.3782Z" fill="#007ACC"/>
<path d="M224.288 18.6167L221.258 31.6471H237.111L226.703 73.7019H243.356L253.781 31.6471H270.748L274.013 18.6167H224.288Z" fill="#007ACC"/>
<path d="M39.5577 73.7019H22.7765L30.0437 44.3724L31.7289 39.9272L27.2792 44.2574L22.3431 49.2643L22.1484 34.5885L39.5666 18.6123H53.1322L39.5577 73.6975V73.7019Z" fill="#002F5E"/>
<path d="M100.167 50.8699L94.8063 41.8158L120.77 18.6167H96.5888L86.6634 28.0998L86.628 28.0423L53.2292 58.7873L37.1646 73.7019H60.0496L77.2466 58.3626L83.0232 68.1907C84.9074 70.6677 87.7736 73.7019 99.5788 73.7019H113.467L100.18 50.8611L100.163 50.8699H100.167Z" fill="#002F5E"/>
<path d="M84.8548 25.0479L84.7796 24.9196C80.874 19.2536 74.8498 18.6211 71.7536 18.6344C70.8159 18.6034 70.2276 18.6122 70.2276 18.6122H53.8799L67.2111 41.285L84.8548 25.0434V25.0479Z" fill="#002F5E"/>
</svg>
