<svg width="344" height="92" viewBox="0 0 344 92" fill="none" xmlns="http://www.w3.org/2000/svg">
<g clip-path="url(#clip0_216_1040)">
<path d="M22.1787 1H332.42C337.741 1 341.86 5.57666 341.385 10.8027L341.324 11.3105L330.726 83.3105C330.075 87.7271 326.286 90.9998 321.822 91H11.5801C6.25944 91 2.14045 86.4233 2.61523 81.1973L2.67578 80.6895L13.2744 8.68945C13.9246 4.27273 17.7144 1 22.1787 1Z" fill="white" stroke="white" stroke-width="2"/>
<path d="M40.64 40.36C38.68 40.36 36.88 39.91 35.24 39.01C33.62 38.11 32.33 36.88 31.37 35.32C30.43 33.76 29.96 32.02 29.96 30.1C29.96 28.2 30.43 26.47 31.37 24.91C32.33 23.33 33.62 22.09 35.24 21.19C36.88 20.29 38.69 19.84 40.67 19.84C42.65 19.84 44.43 20.31 46.01 21.25C47.59 22.17 48.83 23.47 49.73 25.15L45.8 27.82C44.52 25.66 42.8 24.58 40.64 24.58C39.6 24.58 38.67 24.81 37.85 25.27C37.03 25.73 36.39 26.38 35.93 27.22C35.47 28.06 35.24 29.03 35.24 30.13C35.24 31.77 35.74 33.1 36.74 34.12C37.76 35.12 39.06 35.62 40.64 35.62C42.8 35.62 44.52 34.54 45.8 32.38L49.73 35.05C48.83 36.73 47.59 38.04 46.01 38.98C44.43 39.9 42.64 40.36 40.64 40.36ZM62.1732 40.36C60.2132 40.36 58.4132 39.91 56.7732 39.01C55.1532 38.11 53.8632 36.88 52.9032 35.32C51.9632 33.76 51.4932 32.02 51.4932 30.1C51.4932 28.2 51.9632 26.47 52.9032 24.91C53.8632 23.33 55.1532 22.09 56.7732 21.19C58.4132 20.29 60.2232 19.84 62.2032 19.84C64.1832 19.84 65.9632 20.31 67.5432 21.25C69.1232 22.17 70.3632 23.47 71.2632 25.15L67.3332 27.82C66.0532 25.66 64.3332 24.58 62.1732 24.58C61.1332 24.58 60.2032 24.81 59.3832 25.27C58.5632 25.73 57.9232 26.38 57.4632 27.22C57.0032 28.06 56.7732 29.03 56.7732 30.13C56.7732 31.77 57.2732 33.1 58.2732 34.12C59.2932 35.12 60.5932 35.62 62.1732 35.62C64.3332 35.62 66.0532 34.54 67.3332 32.38L71.2632 35.05C70.3632 36.73 69.1232 38.04 67.5432 38.98C65.9632 39.9 64.1732 40.36 62.1732 40.36ZM74.1929 20.2H79.3529V26.35H82.4729C83.9129 26.35 85.2129 26.64 86.3729 27.22C87.5329 27.78 88.4429 28.58 89.1029 29.62C89.7829 30.66 90.1229 31.85 90.1229 33.19C90.1229 34.55 89.7929 35.75 89.1329 36.79C88.4729 37.81 87.5629 38.6 86.4029 39.16C85.2429 39.72 83.9329 40 82.4729 40H74.1929V20.2ZM82.5029 35.5C83.2229 35.5 83.7929 35.29 84.2129 34.87C84.6529 34.45 84.8729 33.89 84.8729 33.19C84.8729 32.49 84.6529 31.93 84.2129 31.51C83.7929 31.07 83.2229 30.85 82.5029 30.85H79.3529V35.5H82.5029ZM92.7329 20.2H97.8929V40H92.7329V20.2ZM118.019 20.2V40H112.859V24.85H108.449C108.449 28.91 108.189 32.07 107.669 34.33C107.149 36.59 106.419 38.16 105.479 39.04C104.539 39.92 103.349 40.36 101.909 40.36C101.229 40.36 100.549 40.24 99.8691 40V35.62C100.029 35.66 100.299 35.68 100.679 35.68C101.359 35.68 101.899 35.33 102.299 34.63C102.719 33.91 103.029 32.73 103.229 31.09C103.449 29.43 103.559 27.19 103.559 24.37V20.2H118.019ZM134.666 40L127.136 30.13V40H121.976V20.2H127.136V29.17L133.676 20.2H139.676L132.866 29.62L140.786 40H134.666ZM154.295 38.35H147.185L146.465 40H140.915L149.915 19.84H151.565L160.565 40H155.015L154.295 38.35ZM150.755 29.62L149.015 34.21H152.465L150.755 29.62ZM40.64 70.36C38.68 70.36 36.88 69.91 35.24 69.01C33.62 68.11 32.33 66.88 31.37 65.32C30.43 63.76 29.96 62.02 29.96 60.1C29.96 58.2 30.43 56.47 31.37 54.91C32.33 53.33 33.62 52.09 35.24 51.19C36.88 50.29 38.69 49.84 40.67 49.84C42.65 49.84 44.43 50.31 46.01 51.25C47.59 52.17 48.83 53.47 49.73 55.15L45.8 57.82C44.52 55.66 42.8 54.58 40.64 54.58C39.6 54.58 38.67 54.81 37.85 55.27C37.03 55.73 36.39 56.38 35.93 57.22C35.47 58.06 35.24 59.03 35.24 60.13C35.24 61.77 35.74 63.1 36.74 64.12C37.76 65.12 39.06 65.62 40.64 65.62C42.8 65.62 44.52 64.54 45.8 62.38L49.73 65.05C48.83 66.73 47.59 68.04 46.01 68.98C44.43 69.9 42.64 70.36 40.64 70.36ZM65.3497 70L57.8197 60.13V70H52.6597V50.2H57.8197V59.17L64.3597 50.2H70.3597L63.5497 59.62L71.4697 70H65.3497ZM81.6549 70.36C79.7149 70.36 77.9249 69.91 76.2849 69.01C74.6649 68.11 73.3749 66.88 72.4149 65.32C71.4749 63.76 71.0049 62.02 71.0049 60.1C71.0049 58.2 71.4749 56.47 72.4149 54.91C73.3749 53.33 74.6649 52.09 76.2849 51.19C77.9249 50.29 79.7149 49.84 81.6549 49.84C83.5949 49.84 85.3849 50.29 87.0249 51.19C88.6649 52.09 89.9649 53.33 90.9249 54.91C91.8849 56.47 92.3649 58.2 92.3649 60.1C92.3649 62.02 91.8849 63.76 90.9249 65.32C89.9649 66.88 88.6649 68.11 87.0249 69.01C85.3849 69.91 83.5949 70.36 81.6549 70.36ZM81.6849 65.62C82.7049 65.62 83.6249 65.39 84.4449 64.93C85.2649 64.47 85.9049 63.83 86.3649 63.01C86.8449 62.17 87.0849 61.2 87.0849 60.1C87.0849 59.02 86.8449 58.06 86.3649 57.22C85.9049 56.38 85.2649 55.73 84.4449 55.27C83.6249 54.81 82.7049 54.58 81.6849 54.58C80.6249 54.58 79.6849 54.81 78.8649 55.27C78.0649 55.73 77.4349 56.38 76.9749 57.22C76.5149 58.06 76.2849 59.02 76.2849 60.1C76.2849 61.76 76.7849 63.1 77.7849 64.12C78.7849 65.12 80.0849 65.62 81.6849 65.62ZM95.3159 50.2H112.566V70H107.406V54.85H100.476V70H95.3159V50.2ZM134.077 49.84V70H128.917V59.71L118.177 70.36H116.527V50.2H121.687V60.37L132.427 49.84H134.077ZM138.031 50.2H145.801C147.261 50.2 148.571 50.48 149.731 51.04C150.891 51.6 151.801 52.4 152.461 53.44C153.121 54.46 153.451 55.65 153.451 57.01C153.451 58.35 153.111 59.54 152.431 60.58C151.771 61.62 150.861 62.43 149.701 63.01C148.541 63.57 147.241 63.85 145.801 63.85H143.191V70H138.031V50.2ZM145.831 59.35C146.551 59.35 147.121 59.14 147.541 58.72C147.981 58.28 148.201 57.71 148.201 57.01C148.201 56.31 147.981 55.75 147.541 55.33C147.121 54.91 146.551 54.7 145.831 54.7H143.191V59.35H145.831ZM165.883 70.36C163.943 70.36 162.153 69.91 160.513 69.01C158.893 68.11 157.603 66.88 156.643 65.32C155.703 63.76 155.233 62.02 155.233 60.1C155.233 58.2 155.703 56.47 156.643 54.91C157.603 53.33 158.893 52.09 160.513 51.19C162.153 50.29 163.943 49.84 165.883 49.84C167.823 49.84 169.613 50.29 171.253 51.19C172.893 52.09 174.193 53.33 175.153 54.91C176.113 56.47 176.593 58.2 176.593 60.1C176.593 62.02 176.113 63.76 175.153 65.32C174.193 66.88 172.893 68.11 171.253 69.01C169.613 69.91 167.823 70.36 165.883 70.36ZM165.913 65.62C166.933 65.62 167.853 65.39 168.673 64.93C169.493 64.47 170.133 63.83 170.593 63.01C171.073 62.17 171.313 61.2 171.313 60.1C171.313 59.02 171.073 58.06 170.593 57.22C170.133 56.38 169.493 55.73 168.673 55.27C167.853 54.81 166.933 54.58 165.913 54.58C164.853 54.58 163.913 54.81 163.093 55.27C162.293 55.73 161.663 56.38 161.203 57.22C160.743 58.06 160.513 59.02 160.513 60.1C160.513 61.76 161.013 63.1 162.013 64.12C163.013 65.12 164.313 65.62 165.913 65.62ZM192.174 59.38C193.214 59.8 194.024 60.41 194.604 61.21C195.184 62.01 195.474 62.98 195.474 64.12C195.474 65.26 195.184 66.28 194.604 67.18C194.024 68.06 193.224 68.75 192.204 69.25C191.184 69.75 190.044 70 188.784 70H179.544V50.2H186.684C187.944 50.2 189.084 50.45 190.104 50.95C191.124 51.43 191.924 52.12 192.504 53.02C193.084 53.9 193.374 54.91 193.374 56.05C193.374 57.37 192.974 58.48 192.174 59.38ZM184.494 54.55V58.03H186.354C186.974 58.03 187.454 57.87 187.794 57.55C188.154 57.23 188.334 56.81 188.334 56.29C188.334 55.77 188.154 55.35 187.794 55.03C187.454 54.71 186.974 54.55 186.354 54.55H184.494ZM188.454 65.65C189.074 65.65 189.554 65.51 189.894 65.23C190.254 64.93 190.434 64.49 190.434 63.91C190.434 63.33 190.254 62.9 189.894 62.62C189.554 62.32 189.074 62.17 188.454 62.17H184.494V65.65H188.454ZM209.432 68.35H202.322L201.602 70H196.052L205.052 49.84H206.702L215.702 70H210.152L209.432 68.35ZM205.892 59.62L204.152 64.21H207.602L205.892 59.62ZM217.748 50.2H222.908V57.43H230.138V50.2H235.298V70H230.138V62.08H222.908V70H217.748V50.2ZM250.711 68.35H243.601L242.881 70H237.331L246.331 49.84H247.981L256.981 70H251.431L250.711 68.35ZM247.171 59.62L245.431 64.21H248.881L247.171 59.62Z" fill="#2E5EFE"/>
<g clip-path="url(#clip1_216_1040)">
<path fill-rule="evenodd" clip-rule="evenodd" d="M268 46C268 40.2978 270.265 34.8292 274.297 30.7972C278.329 26.7652 283.798 24.5 289.5 24.5C295.202 24.5 300.671 26.7652 304.703 30.7972C308.735 34.8292 311 40.2978 311 46C311 51.7022 308.735 57.1708 304.703 61.2028C300.671 65.2348 295.202 67.5 289.5 67.5C283.798 67.5 278.329 65.2348 274.297 61.2028C270.265 57.1708 268 51.7022 268 46ZM288.273 55.202L300.651 39.7277L298.415 37.9389L287.86 51.1285L280.384 44.8992L278.549 47.1008L288.273 55.202Z" fill="#2E5EFE"/>
</g>
</g>
<defs>
<clipPath id="clip0_216_1040">
<rect width="344" height="92" fill="white"/>
</clipPath>
<clipPath id="clip1_216_1040">
<rect width="43" height="43" fill="white" transform="translate(268 24.5)"/>
</clipPath>
</defs>
</svg>
