<svg xmlns="http://www.w3.org/2000/svg" width="43" height="44" viewBox="0 0 43 44" fill="none">
<g clip-path="url(#clip0_216_1044)">
<path fill-rule="evenodd" clip-rule="evenodd" d="M0 22C0 16.2978 2.26517 10.8292 6.2972 6.7972C10.3292 2.76517 15.7978 0.5 21.5 0.5C27.2022 0.5 32.6708 2.76517 36.7028 6.7972C40.7348 10.8292 43 16.2978 43 22C43 27.7022 40.7348 33.1708 36.7028 37.2028C32.6708 41.2348 27.2022 43.5 21.5 43.5C15.7978 43.5 10.3292 41.2348 6.2972 37.2028C2.26517 33.1708 0 27.7022 0 22ZM20.2731 31.202L32.6513 15.7277L30.4153 13.9389L19.8603 27.1285L12.384 20.8992L10.5493 23.1008L20.2731 31.202Z" fill="#2E5EFE"/>
</g>
<defs>
<clipPath id="clip0_216_1044">
<rect width="43" height="43" fill="white" transform="translate(0 0.5)"/>
</clipPath>
</defs>
</svg>