<svg width="344" height="92" viewBox="0 0 344 92" fill="none" xmlns="http://www.w3.org/2000/svg">
<g clip-path="url(#clip0_125_2232)">
<path d="M22.1787 1H332.42C337.741 1 341.86 5.57666 341.385 10.8027L341.324 11.3105L330.726 83.3105C330.075 87.7271 326.286 90.9998 321.822 91H11.5801C6.25944 91 2.14045 86.4233 2.61523 81.1973L2.67578 80.6895L13.2744 8.68945C13.9246 4.27273 17.7144 1 22.1787 1Z" fill="white" fill-opacity="0.2" stroke="white" stroke-width="2"/>
<path d="M32.2593 20.2H49.5093V40H44.3493V24.85H37.4193V40H32.2593V20.2ZM63.1002 40.36C61.1602 40.36 59.3702 39.91 57.7302 39.01C56.1102 38.11 54.8202 36.88 53.8602 35.32C52.9202 33.76 52.4502 32.02 52.4502 30.1C52.4502 28.2 52.9202 26.47 53.8602 24.91C54.8202 23.33 56.1102 22.09 57.7302 21.19C59.3702 20.29 61.1602 19.84 63.1002 19.84C65.0402 19.84 66.8302 20.29 68.4702 21.19C70.1102 22.09 71.4102 23.33 72.3702 24.91C73.3302 26.47 73.8102 28.2 73.8102 30.1C73.8102 32.02 73.3302 33.76 72.3702 35.32C71.4102 36.88 70.1102 38.11 68.4702 39.01C66.8302 39.91 65.0402 40.36 63.1002 40.36ZM63.1302 35.62C64.1502 35.62 65.0702 35.39 65.8902 34.93C66.7102 34.47 67.3502 33.83 67.8102 33.01C68.2902 32.17 68.5302 31.2 68.5302 30.1C68.5302 29.02 68.2902 28.06 67.8102 27.22C67.3502 26.38 66.7102 25.73 65.8902 25.27C65.0702 24.81 64.1502 24.58 63.1302 24.58C62.0702 24.58 61.1302 24.81 60.3102 25.27C59.5102 25.73 58.8802 26.38 58.4202 27.22C57.9602 28.06 57.7302 29.02 57.7302 30.1C57.7302 31.76 58.2302 33.1 59.2302 34.12C60.2302 35.12 61.5302 35.62 63.1302 35.62ZM96.2718 35.35V44.23H91.1118V40H80.1018V44.23H74.9418V35.35H76.5918C77.2918 34.81 77.7918 33.6 78.0918 31.72C78.4118 29.84 78.5718 27.29 78.5718 24.07V20.2H93.4818V35.35H96.2718ZM82.1118 35.35H88.3218V24.85H83.4618C83.4218 29.65 82.9718 33.15 82.1118 35.35ZM98.8511 20.2H112.591V24.85H104.011V27.58H110.131V31.9H104.011V35.35H112.951V40H98.8511V20.2ZM132.336 20.2V40H127.176V24.85H122.766C122.766 28.91 122.506 32.07 121.986 34.33C121.466 36.59 120.736 38.16 119.796 39.04C118.856 39.92 117.666 40.36 116.226 40.36C115.546 40.36 114.866 40.24 114.186 40V35.62C114.346 35.66 114.616 35.68 114.996 35.68C115.676 35.68 116.216 35.33 116.616 34.63C117.036 33.91 117.346 32.73 117.546 31.09C117.766 29.43 117.876 27.19 117.876 24.37V20.2H132.336ZM153.843 19.84V40H148.683V29.71L137.943 40.36H136.292V20.2H141.453V30.37L152.193 19.84H153.843ZM162.056 24.85H156.116V20.2H173.156V24.85H167.216V40H162.056V24.85ZM175.433 20.2H180.593V26.35H183.713C185.153 26.35 186.453 26.64 187.613 27.22C188.773 27.78 189.683 28.58 190.343 29.62C191.023 30.66 191.363 31.85 191.363 33.19C191.363 34.55 191.033 35.75 190.373 36.79C189.713 37.81 188.803 38.6 187.643 39.16C186.483 39.72 185.173 40 183.713 40H175.433V20.2ZM183.743 35.5C184.463 35.5 185.033 35.29 185.453 34.87C185.893 34.45 186.113 33.89 186.113 33.19C186.113 32.49 185.893 31.93 185.453 31.51C185.033 31.07 184.463 30.85 183.743 30.85H180.593V35.5H183.743ZM203.931 40.36C201.971 40.36 200.171 39.91 198.531 39.01C196.911 38.11 195.621 36.88 194.661 35.32C193.721 33.76 193.251 32.02 193.251 30.1C193.251 28.2 193.721 26.47 194.661 24.91C195.621 23.33 196.911 22.09 198.531 21.19C200.171 20.29 201.981 19.84 203.961 19.84C205.941 19.84 207.721 20.31 209.301 21.25C210.881 22.17 212.121 23.47 213.021 25.15L209.091 27.82C207.811 25.66 206.091 24.58 203.931 24.58C202.891 24.58 201.961 24.81 201.141 25.27C200.321 25.73 199.681 26.38 199.221 27.22C198.761 28.06 198.531 29.03 198.531 30.13C198.531 31.77 199.031 33.1 200.031 34.12C201.051 35.12 202.351 35.62 203.931 35.62C206.091 35.62 207.811 34.54 209.091 32.38L213.021 35.05C212.121 36.73 210.881 38.04 209.301 38.98C207.721 39.9 205.931 40.36 203.931 40.36ZM230.751 20.2V40H225.591V34.18H223.911L219.891 40H214.431L219.111 33.22C217.931 32.62 217.001 31.8 216.321 30.76C215.661 29.7 215.331 28.5 215.331 27.16C215.331 25.8 215.671 24.6 216.351 23.56C217.051 22.5 218.021 21.68 219.261 21.1C220.501 20.5 221.921 20.2 223.521 20.2H230.751ZM225.591 24.7H223.311C222.511 24.7 221.851 24.93 221.331 25.39C220.831 25.85 220.581 26.45 220.581 27.19C220.581 27.93 220.831 28.53 221.331 28.99C221.851 29.45 222.511 29.68 223.311 29.68H225.591V24.7ZM30.7505 50.2H38.5205C39.9805 50.2 41.2905 50.48 42.4505 51.04C43.6105 51.6 44.5205 52.4 45.1805 53.44C45.8405 54.46 46.1705 55.65 46.1705 57.01C46.1705 58.35 45.8305 59.54 45.1505 60.58C44.4905 61.62 43.5805 62.43 42.4205 63.01C41.2605 63.57 39.9605 63.85 38.5205 63.85H35.9105V70H30.7505V50.2ZM38.5505 59.35C39.2705 59.35 39.8405 59.14 40.2605 58.72C40.7005 58.28 40.9205 57.71 40.9205 57.01C40.9205 56.31 40.7005 55.75 40.2605 55.33C39.8405 54.91 39.2705 54.7 38.5505 54.7H35.9105V59.35H38.5505ZM48.9732 50.2H62.7132V54.85H54.1332V57.58H60.2532V61.9H54.1332V65.35H63.0732V70H48.9732V50.2ZM78.5576 59.74C79.3576 60.18 79.9776 60.77 80.4176 61.51C80.8776 62.25 81.1076 63.11 81.1076 64.09C81.1076 66.01 80.4176 67.54 79.0376 68.68C77.6576 69.8 75.7376 70.36 73.2776 70.36C71.4376 70.36 69.8176 69.94 68.4176 69.1C67.0176 68.26 65.9676 67.1 65.2676 65.62L68.8376 63.1C69.4376 64 70.0976 64.65 70.8176 65.05C71.5576 65.43 72.3676 65.62 73.2476 65.62C74.0676 65.62 74.7376 65.47 75.2576 65.17C75.7976 64.87 76.0676 64.41 76.0676 63.79C76.0676 63.29 75.8676 62.9 75.4676 62.62C75.0876 62.32 74.5276 62.17 73.7876 62.17H70.9976V58.03H73.1876C73.8676 58.03 74.3876 57.88 74.7476 57.58C75.1276 57.26 75.3176 56.85 75.3176 56.35C75.3176 55.81 75.1076 55.38 74.6876 55.06C74.2876 54.74 73.7476 54.58 73.0676 54.58C71.5276 54.58 70.3176 55.42 69.4376 57.1L65.8676 54.58C66.5676 53.06 67.5576 51.89 68.8376 51.07C70.1376 50.25 71.6676 49.84 73.4276 49.84C75.5676 49.84 77.2576 50.36 78.4976 51.4C79.7376 52.44 80.3576 53.92 80.3576 55.84C80.3576 56.62 80.1976 57.35 79.8776 58.03C79.5776 58.69 79.1376 59.26 78.5576 59.74ZM100.879 50.2L94.3686 64.84C93.8086 66.1 93.2486 67.12 92.6886 67.9C92.1486 68.66 91.4386 69.26 90.5586 69.7C89.6986 70.14 88.6086 70.36 87.2886 70.36C86.4086 70.36 85.5086 70.24 84.5886 70V65.62C85.2686 65.66 85.8086 65.68 86.2086 65.68C87.2686 65.68 88.1386 65.41 88.8186 64.87L81.8286 50.2H87.5886L91.6086 59.41L95.2986 50.2H100.879ZM117.878 50.2V70H112.718V54.85H108.308C108.308 58.91 108.048 62.07 107.528 64.33C107.008 66.59 106.278 68.16 105.338 69.04C104.398 69.92 103.208 70.36 101.768 70.36C101.088 70.36 100.408 70.24 99.7275 70V65.62C99.8875 65.66 100.158 65.68 100.538 65.68C101.218 65.68 101.758 65.33 102.158 64.63C102.578 63.91 102.888 62.73 103.088 61.09C103.308 59.43 103.418 57.19 103.418 54.37V50.2H117.878ZM121.834 50.2H126.994V56.35H130.114C131.554 56.35 132.854 56.64 134.014 57.22C135.174 57.78 136.084 58.58 136.744 59.62C137.424 60.66 137.764 61.85 137.764 63.19C137.764 64.55 137.434 65.75 136.774 66.79C136.114 67.81 135.204 68.6 134.044 69.16C132.884 69.72 131.574 70 130.114 70H121.834V50.2ZM130.144 65.5C130.864 65.5 131.434 65.29 131.854 64.87C132.294 64.45 132.514 63.89 132.514 63.19C132.514 62.49 132.294 61.93 131.854 61.51C131.434 61.07 130.864 60.85 130.144 60.85H126.994V65.5H130.144ZM142.823 54.85H136.883V50.2H153.923V54.85H147.983V70H142.823V54.85ZM165.404 68.35H158.294L157.574 70H152.024L161.024 49.84H162.674L171.674 70H166.124L165.404 68.35ZM161.864 59.62L160.124 64.21H163.574L161.864 59.62ZM175.723 54.85H169.783V50.2H186.823V54.85H180.883V70H175.723V54.85ZM198.437 70.36C196.497 70.36 194.707 69.91 193.067 69.01C191.447 68.11 190.157 66.88 189.197 65.32C188.257 63.76 187.787 62.02 187.787 60.1C187.787 58.2 188.257 56.47 189.197 54.91C190.157 53.33 191.447 52.09 193.067 51.19C194.707 50.29 196.497 49.84 198.437 49.84C200.377 49.84 202.167 50.29 203.807 51.19C205.447 52.09 206.747 53.33 207.707 54.91C208.667 56.47 209.147 58.2 209.147 60.1C209.147 62.02 208.667 63.76 207.707 65.32C206.747 66.88 205.447 68.11 203.807 69.01C202.167 69.91 200.377 70.36 198.437 70.36ZM198.467 65.62C199.487 65.62 200.407 65.39 201.227 64.93C202.047 64.47 202.687 63.83 203.147 63.01C203.627 62.17 203.867 61.2 203.867 60.1C203.867 59.02 203.627 58.06 203.147 57.22C202.687 56.38 202.047 55.73 201.227 55.27C200.407 54.81 199.487 54.58 198.467 54.58C197.407 54.58 196.467 54.81 195.647 55.27C194.847 55.73 194.217 56.38 193.757 57.22C193.297 58.06 193.067 59.02 193.067 60.1C193.067 61.76 193.567 63.1 194.567 64.12C195.567 65.12 196.867 65.62 198.467 65.62ZM232.258 49.84V70H227.098V61.69L222.988 66.49H221.338L217.258 61.72V70H212.098V49.84H213.748L222.178 60.13L230.608 49.84H232.258Z" fill="white"/>
<path d="M293.879 35.1389V21.5L308.376 36.3333L320 48.2264L308.17 58.3138L293.879 70.5V57.1541C268.79 55.2192 260 70.0746 260 70.0746C260 60.8191 260.745 51.2139 267.857 43.9406C276.123 35.4793 288.095 34.8805 293.879 35.1389Z" fill="white"/>
</g>
<defs>
<clipPath id="clip0_125_2232">
<rect width="344" height="92" fill="white"/>
</clipPath>
</defs>
</svg>
